<svg width="26" height="31" viewBox="0 0 26 31" fill="none" xmlns="http://www.w3.org/2000/svg">
<g id="Group 481723">
<path id="Vector" d="M7.36158 29.5863L7.89389 26.2158L6.70815 26.1884H1.04608L4.98093 1.31793C4.99264 1.24194 5.03136 1.17268 5.09003 1.12277C5.14869 1.07286 5.22339 1.04562 5.30052 1.04602H14.8476C18.017 1.04602 20.2043 1.70347 21.3463 3.00113C21.8816 3.60988 22.2226 4.24602 22.3875 4.94608C22.5605 5.68064 22.5636 6.55826 22.3946 7.62864L22.3824 7.70676V8.39262L22.9178 8.69497C23.3265 8.90137 23.6938 9.18059 24.0017 9.51881C24.4597 10.0393 24.7559 10.7008 24.8811 11.4851C25.0104 12.2917 24.9676 13.2515 24.7559 14.3381C24.5116 15.588 24.1167 16.6767 23.5834 17.5675C23.1128 18.3655 22.4801 19.0567 21.7259 19.5967C21.0175 20.0979 20.1758 20.4783 19.2241 20.7218C18.302 20.9613 17.2506 21.082 16.0974 21.082H15.3544C14.8231 21.082 14.3071 21.2728 13.902 21.6147C13.4975 21.9602 13.2292 22.4377 13.1448 22.962L13.0888 23.2654L12.1483 29.2058L12.1056 29.4239C12.0944 29.4929 12.0751 29.5274 12.0466 29.5507C12.0189 29.5732 11.9845 29.5858 11.9488 29.5863H7.36158Z" fill="#253B80"/>
<path id="Vector_2" d="M23.4285 7.77008C23.4 7.95188 23.3675 8.13774 23.3308 8.32868C22.0724 14.779 17.767 17.0073 12.2683 17.0073H9.46859C8.79613 17.0073 8.22948 17.4948 8.12469 18.157L6.69126 27.2328L6.28535 29.8054C6.26918 29.9075 6.27535 30.0118 6.30344 30.1112C6.33154 30.2107 6.38088 30.3028 6.44808 30.3814C6.51527 30.46 6.59873 30.5231 6.69269 30.5664C6.78666 30.6097 6.88891 30.6321 6.9924 30.6321H11.958C12.546 30.6321 13.0456 30.2056 13.1381 29.6267L13.187 29.3748L14.1219 23.4516L14.1819 23.1266C14.2735 22.5456 14.774 22.1191 15.362 22.1191H16.1047C20.9157 22.1191 24.6819 20.169 25.7826 14.5261C26.2424 12.1688 26.0044 10.2005 24.7877 8.81619C24.402 8.38796 23.9414 8.03347 23.4285 7.77008Z" fill="#179BD7"/>
<path id="Vector_3" d="M22.136 7.3246C21.7319 7.20862 21.3208 7.11809 20.9052 7.05357C20.084 6.92835 19.254 6.86827 18.4231 6.8739H10.9012C10.6149 6.87368 10.338 6.97507 10.1205 7.15976C9.90303 7.34444 9.75932 7.60023 9.71535 7.88088L8.11519 17.9365L8.06915 18.2299C8.119 17.9097 8.28268 17.6179 8.53058 17.4071C8.77848 17.1964 9.09423 17.0806 9.4207 17.0808H12.2363C17.7663 17.0808 22.0961 14.8526 23.3617 8.4067C23.3996 8.21586 23.4313 8.0301 23.46 7.8484C23.126 7.67464 22.7779 7.52897 22.4194 7.41292C22.3255 7.38198 22.231 7.35253 22.136 7.3246Z" fill="#222D65"/>
<path id="Vector_4" d="M9.79023 7.84673C9.83362 7.56487 9.97659 7.30794 10.1932 7.1226C10.4097 6.93727 10.6855 6.83583 10.9705 6.83672H18.4573C19.3443 6.83672 20.1722 6.89481 20.9278 7.01711C21.4391 7.09754 21.9434 7.21783 22.436 7.37689C22.8077 7.50021 23.1529 7.64595 23.4716 7.81412C23.8464 5.42208 23.4686 3.79342 22.1763 2.31865C20.7517 0.695087 18.1803 0 14.8901 0H5.33805C4.66595 0 4.09262 0.489211 3.98875 1.15474L0.0100915 26.3949C-0.00844046 26.5121 -0.00138969 26.6319 0.0307587 26.7461C0.0629072 26.8603 0.11939 26.9662 0.196323 27.0565C0.273255 27.1467 0.368811 27.2193 0.476418 27.269C0.584024 27.3188 0.701128 27.3447 0.819672 27.3448H6.71688L8.19755 17.9428L9.79023 7.84673Z" fill="#253B80"/>
</g>
</svg>
