<svg width="24" height="30" viewBox="0 0 24 30" fill="none" xmlns="http://www.w3.org/2000/svg">
<g id="Group 481733">
<path id="Vector" d="M6.81806 28.2399L7.30883 25.1226L6.21563 25.0973H0.995483L4.62322 2.09502C4.63402 2.02474 4.66972 1.96068 4.7238 1.91452C4.77789 1.86836 4.84676 1.84317 4.91787 1.84354H13.7198C16.6419 1.84354 18.6584 2.4516 19.7113 3.65178C20.2048 4.2148 20.5192 4.80316 20.6712 5.45063C20.8307 6.13001 20.8335 6.9417 20.6778 7.93168L20.6665 8.00393V8.63827L21.1601 8.9179C21.5369 9.10881 21.8756 9.36704 22.1595 9.67986C22.5817 10.1612 22.8548 10.7731 22.9702 11.4984C23.0894 12.2444 23.05 13.1321 22.8548 14.1371C22.6296 15.2932 22.2655 16.3001 21.7738 17.1239C21.34 17.862 20.7566 18.5013 20.0613 19.0007C19.4082 19.4642 18.6321 19.8161 17.7548 20.0413C16.9046 20.2628 15.9353 20.3745 14.8721 20.3745H14.1871C13.6972 20.3745 13.2215 20.5509 12.848 20.8671C12.4751 21.1867 12.2277 21.6283 12.1499 22.1133L12.0983 22.3938L11.2312 27.888L11.1918 28.0897C11.1815 28.1535 11.1637 28.1854 11.1374 28.207C11.1119 28.2278 11.0802 28.2394 11.0473 28.2399H6.81806Z" fill="#253B80"/>
<path id="Vector_2" d="M21.6275 8.07709C21.6012 8.24506 21.5712 8.41678 21.5374 8.59319C20.3766 14.5528 16.4054 16.6116 11.3335 16.6116H8.75116C8.13089 16.6116 7.60822 17.062 7.51157 17.6738L6.18941 26.0591L5.815 28.4359C5.80008 28.5302 5.80578 28.6266 5.83169 28.7185C5.8576 28.8104 5.90311 28.8955 5.9651 28.9681C6.02708 29.0407 6.10405 29.099 6.19073 29.139C6.2774 29.179 6.37171 29.1997 6.46717 29.1998H11.0473C11.5897 29.1998 12.0505 28.8057 12.1359 28.2708L12.1809 28.0381L13.0433 22.5655L13.0986 22.2652C13.1831 21.7285 13.6448 21.3344 14.1871 21.3344H14.8721C19.3097 21.3344 22.7835 19.5327 23.7988 14.3191C24.223 12.1412 24.0034 10.3226 22.8811 9.04361C22.5254 8.64796 22.1006 8.32043 21.6275 8.07709Z" fill="#179BD7"/>
<path id="Vector_3" d="M20.4132 7.5929C20.0426 7.48569 19.6656 7.40201 19.2844 7.34236C18.5312 7.2266 17.7699 7.17106 17.0079 7.17627H10.109C9.84645 7.17607 9.59249 7.2698 9.39303 7.44052C9.19356 7.61125 9.06176 7.8477 9.02143 8.10713L7.55382 17.4026L7.5116 17.6738C7.55732 17.3779 7.70744 17.1081 7.9348 16.9133C8.16217 16.7184 8.45176 16.6114 8.75118 16.6116H11.3336C16.4055 16.6116 20.3766 14.5519 21.5374 8.59321C21.5721 8.41679 21.6012 8.24507 21.6275 8.0771C21.3212 7.91648 21.002 7.78182 20.6732 7.67454C20.587 7.64594 20.5003 7.61872 20.4132 7.5929Z" fill="#222D65"/>
<path id="Vector_4" d="M9.0214 8.10713C9.06138 7.84762 9.19311 7.61106 9.39268 7.44043C9.59224 7.26979 9.8464 7.17639 10.109 7.17721H17.0079C17.8252 7.17721 18.5881 7.2307 19.2843 7.3433C19.7555 7.41735 20.2202 7.5281 20.6741 7.67455C21.0166 7.78809 21.3347 7.92227 21.6284 8.07711C21.9737 5.87475 21.6256 4.37524 20.4348 3.01742C19.122 1.5226 16.7526 0.882629 13.7207 0.882629H4.91885C4.29952 0.882629 3.77122 1.33305 3.67551 1.9458L0.00929897 25.1845C-0.00777762 25.2924 -0.00128056 25.4027 0.0283432 25.5079C0.057967 25.613 0.110014 25.7105 0.180905 25.7936C0.251796 25.8767 0.339848 25.9435 0.439004 25.9893C0.53816 26.0351 0.646067 26.0589 0.755302 26.0591H6.1894L7.55379 17.4026L9.0214 8.10713Z" fill="#253B80"/>
</g>
</svg>
