<svg width="39" height="23" viewBox="0 0 39 23" fill="none" xmlns="http://www.w3.org/2000/svg">
<g id="Group 481761">
<path id="Vector" d="M28.3698 12.2728C28.6228 12.1267 29.033 12.1267 29.286 12.2728L34.1214 15.0645C34.3744 15.2106 34.3744 15.4474 34.1214 15.5935L31.8422 16.9093C31.5892 17.0554 31.179 17.0554 30.9261 16.9093L26.0906 14.1176C25.8376 13.9715 25.8376 13.7347 26.0906 13.5886L28.3698 12.2728Z" fill="white"/>
<path id="Vector_2" d="M7.79265 6.29585C8.04564 6.14978 8.45582 6.14978 8.70881 6.29585L13.5442 9.08758C13.7972 9.23364 13.7972 9.47046 13.5442 9.61652L11.2651 10.9324C11.0121 11.0785 10.6019 11.0785 10.3489 10.9324L5.51349 8.14067C5.2605 7.9946 5.2605 7.75779 5.51349 7.61172L7.79265 6.29585Z" fill="white"/>
<path id="Vector_3" d="M12.9051 3.34419C13.1581 3.19812 13.5682 3.19812 13.8212 3.34419L18.6567 6.13592C18.9097 6.28198 18.9097 6.5188 18.6567 6.66486L16.3775 7.98074C16.1245 8.1268 15.7143 8.1268 15.4613 7.98074L10.6259 5.18901C10.3729 5.04294 10.3729 4.80613 10.6259 4.66006L12.9051 3.34419Z" fill="white"/>
<path id="Vector_4" d="M19.2963 8.51008C19.5493 8.36401 19.9595 8.36401 20.2125 8.51008L25.1757 11.3756C25.4287 11.5217 25.4287 11.7585 25.1757 11.9046L20.3403 14.6963C20.0873 14.8423 19.6771 14.8423 19.4241 14.6963L14.4609 11.8308C14.2079 11.6847 14.2079 11.4479 14.4609 11.3018L19.2963 8.51008Z" fill="white"/>
<path id="Vector_5" d="M23.2596 15.2258C23.5126 15.0797 23.9227 15.0797 24.1757 15.2258L29.0112 18.0175C29.2641 18.1636 29.2641 18.4004 29.0112 18.5465L26.732 19.8623C26.479 20.0084 26.0688 20.0084 25.8158 19.8623L20.9804 17.0706C20.7274 16.9245 20.7274 16.6877 20.9804 16.5417L23.2596 15.2258Z" fill="white"/>
<path id="Vector_6" d="M21.9905 5.84699C22.5199 6.15264 22.5199 6.64823 21.9905 6.95388C21.814 7.05577 21.814 7.22096 21.9905 7.32284L23.194 8.01768C23.447 8.16374 23.8572 8.16374 24.1101 8.01768L25.8888 6.99078C26.1431 6.84396 26.4879 6.7615 26.8474 6.76157C27.0546 6.76157 27.1584 6.61691 27.0119 6.5323L17.6556 1.13044C17.4026 0.984376 16.9924 0.984376 16.7394 1.13044L15.7384 1.70839C15.4854 1.85445 15.4854 2.09127 15.7384 2.23733L21.9905 5.84699Z" fill="white"/>
<path id="Vector_7" d="M27.6772 8.32687C27.5054 8.32687 27.3406 8.36628 27.2191 8.43642L26.0273 9.12454C25.7743 9.2706 25.7743 9.50742 26.0273 9.65349L27.2308 10.3483C27.4072 10.4502 27.6934 10.4502 27.8698 10.3483C28.3992 10.0427 29.2576 10.0427 29.787 10.3483L36.0391 13.958C36.2921 14.104 36.7023 14.104 36.9553 13.958L37.9563 13.38C38.2093 13.234 38.2093 12.9971 37.9563 12.8511L30.3099 8.43642C30.1884 8.36628 30.0237 8.32687 29.8518 8.32687L27.6772 8.32687Z" fill="white"/>
<path id="Vector_8" d="M17.6462 17.3595C17.1168 17.0538 17.1168 16.5582 17.6462 16.2526C17.8227 16.1507 17.8227 15.9855 17.6462 15.8836L16.4427 15.1888C16.1897 15.0427 15.7796 15.0427 15.5266 15.1888L13.7479 16.2157C13.4936 16.3625 13.1489 16.445 12.7893 16.4449C12.5821 16.4449 12.4783 16.5896 12.6248 16.6742L21.9811 22.076C22.2341 22.2221 22.6443 22.2221 22.8973 22.076L23.8983 21.4981C24.1513 21.352 24.1513 21.1152 23.8983 20.9691L17.6462 17.3595Z" fill="white"/>
<path id="Vector_9" d="M11.958 14.8787C12.1298 14.8787 12.2946 14.8393 12.4161 14.7692L13.6079 14.0811C13.8609 13.935 13.8609 13.6982 13.6079 13.5521L12.4045 12.8573C12.228 12.7554 11.9419 12.7554 11.7654 12.8573C11.236 13.1629 10.3776 13.1629 9.84819 12.8573L3.59609 9.24764C3.3431 9.10158 2.93292 9.10158 2.67993 9.24764L1.67889 9.82559C1.4259 9.97165 1.4259 10.2085 1.67889 10.3545L9.3253 14.7692C9.44679 14.8393 9.61157 14.8787 9.78338 14.8787L11.958 14.8787Z" fill="white"/>
<rect id="Rectangle 14295" x="-1.57639e-08" y="0.264474" width="24.3316" height="18.5132" rx="0.793421" transform="matrix(0.866025 0.5 -0.866025 0.5 17.4272 0.704502)" stroke="white" stroke-width="0.528947"/>
</g>
</svg>
