<svg width="24" height="24" viewBox="0 0 24 24" fill="none" xmlns="http://www.w3.org/2000/svg">
<g id="maps-and-flags (1) 1" clip-path="url(#clip0_1_134)">
<g id="Group">
<g id="Group_2">
<path id="Vector" d="M12 0C5.36761 0 0 5.36705 0 12C0 18.6324 5.36705 24 12 24C18.6324 24 24 18.633 24 12C24 5.36761 18.633 0 12 0ZM18.3522 8.7218L10.6645 16.4095C10.3522 16.7218 9.84548 16.7219 9.53311 16.4095L5.64778 12.5242C5.33536 12.2118 5.33536 11.7052 5.64778 11.3928C5.96016 11.0804 6.46673 11.0804 6.77916 11.3928L10.0988 14.7125L17.2209 7.59037C17.5333 7.27795 18.0399 7.27795 18.3523 7.59037C18.6646 7.90289 18.6646 8.40938 18.3522 8.7218Z" fill="#00AE1C"/>
</g>
</g>
</g>
<defs>
<clipPath id="clip0_1_134">
<rect width="24" height="24" fill="white"/>
</clipPath>
</defs>
</svg>
