<svg width="40" height="27" viewBox="0 0 40 27" fill="none" xmlns="http://www.w3.org/2000/svg">
<g id="Netflix-Logo.wine">
<path id="Vector" d="M8.84594 17.013C8.38308 17.0945 7.91208 17.119 7.42485 17.1841L5.93873 12.8166V17.3716C5.47587 17.4204 5.0536 17.4856 4.61508 17.5508V9.20688H5.84946L7.53852 13.9412V9.20688H8.84594V17.013ZM11.404 12.2625C11.9075 12.2625 12.6789 12.2381 13.1418 12.2381V13.5418C12.5652 13.5418 11.8912 13.5418 11.404 13.5662V15.5056C12.1673 15.4567 12.9307 15.3915 13.7021 15.367V16.6218L10.1046 16.907V9.20688H13.7021V10.5106H11.404V12.2625ZM18.5339 10.5107H17.1859V16.5078C16.7473 16.5078 16.3088 16.5078 15.8866 16.5241V10.5107H14.5386V9.20688H18.5339L18.5339 10.5107ZM20.6452 12.1729H22.4237V13.4766H20.6452V16.4345H19.3702V9.20688H23.0003V10.5106H20.6452V12.1729ZM25.1116 15.2937C25.8506 15.31 26.5977 15.3671 27.3205 15.4078V16.6952C26.1592 16.6218 24.9979 16.5486 23.8123 16.5241V9.20688H25.1116V15.2937ZM28.4167 16.7849C28.8309 16.8094 29.2694 16.8338 29.6917 16.8826V9.20688H28.4167V16.7849ZM35.3843 9.20688L33.7358 13.1752L35.3843 17.5508C34.897 17.4856 34.4098 17.396 33.9225 17.3145L32.9887 14.9026L32.0387 17.119C31.5676 17.0374 31.1128 17.013 30.6419 16.9478L32.3147 13.1262L30.8043 9.20688H32.2009L33.0536 11.3988L33.9632 9.20688H35.3843Z" fill="#D81F26"/>
</g>
</svg>
