<svg width="48" height="33" viewBox="0 0 48 33" fill="none" xmlns="http://www.w3.org/2000/svg">
<g id="Shopify-Logo.wine 1">
<path id="Vector" d="M13.4768 13.6192C13.4708 13.5649 13.4225 13.5408 13.3863 13.5408C13.3501 13.5408 12.5599 13.4805 12.5599 13.4805C12.5599 13.4805 12.011 12.9315 11.9446 12.8772C11.8843 12.8169 11.7697 12.835 11.7215 12.8471C11.7154 12.8471 11.6008 12.8833 11.4138 12.9436C11.2268 12.4067 10.9071 11.9181 10.334 11.9181H10.2798C10.1229 11.713 9.91783 11.6165 9.74893 11.6165C8.42184 11.6165 7.78243 13.2754 7.58337 14.1199C7.0646 14.2827 6.69663 14.3913 6.65441 14.4094C6.36486 14.4999 6.35883 14.5059 6.32264 14.7774C6.29248 14.9825 5.53845 20.8156 5.53845 20.8156L11.4078 21.9135L14.5928 21.2258C14.5988 21.2137 13.4829 13.6735 13.4768 13.6192ZM11.0881 13.028C10.9433 13.0703 10.7684 13.1246 10.5934 13.1849V13.0763C10.5934 12.7506 10.5512 12.4852 10.4728 12.274C10.7744 12.3102 10.9614 12.642 11.0881 13.028ZM10.1048 12.3404C10.1832 12.5455 10.2375 12.835 10.2375 13.2331V13.2935C9.9118 13.396 9.56796 13.4986 9.21206 13.6132C9.41112 12.8531 9.79115 12.4791 10.1048 12.3404ZM9.71876 11.9664C9.77909 11.9664 9.83941 11.9905 9.88767 12.0267C9.45938 12.2258 9.00697 12.7264 8.81997 13.7398C8.53645 13.8303 8.26501 13.9088 8.00562 13.9932C8.22278 13.2211 8.76568 11.9664 9.71876 11.9664Z" fill="#95BF47"/>
<path id="Vector_2" d="M13.3864 13.5288C13.3502 13.5288 12.56 13.4685 12.56 13.4685C12.56 13.4685 12.011 12.9195 11.9447 12.8652C11.9205 12.8411 11.8904 12.829 11.8663 12.829L11.4259 21.9136L14.6109 21.2259C14.6109 21.2259 13.4949 13.6736 13.4889 13.6193C13.4648 13.565 13.4226 13.5408 13.3864 13.5288Z" fill="#5E8E3E"/>
<path id="Vector_3" d="M10.3341 15.2901L9.94807 16.4543C9.94807 16.4543 9.5982 16.2673 9.18197 16.2673C8.56066 16.2673 8.53049 16.6594 8.53049 16.756C8.53049 17.2868 9.91791 17.4919 9.91791 18.7405C9.91791 19.7238 9.29659 20.3572 8.45811 20.3572C7.4447 20.3572 6.93799 19.7298 6.93799 19.7298L7.20944 18.8371C7.20944 18.8371 7.74027 19.2955 8.18666 19.2955C8.48224 19.2955 8.60288 19.0663 8.60288 18.8974C8.60288 18.2037 7.46882 18.1735 7.46882 17.0274C7.46882 16.0683 8.1565 15.1393 9.54994 15.1393C10.0687 15.1333 10.3341 15.2901 10.3341 15.2901Z" fill="white"/>
<path id="Vector_4" d="M18.3086 17.4798C17.9889 17.3109 17.826 17.1601 17.826 16.961C17.826 16.7077 18.0552 16.5448 18.4111 16.5448C18.8274 16.5448 19.1953 16.7137 19.1953 16.7137L19.4849 15.827C19.4849 15.827 19.2195 15.6219 18.4353 15.6219C17.3434 15.6219 16.5834 16.2492 16.5834 17.1299C16.5834 17.6306 16.9393 18.0106 17.4098 18.2821C17.7959 18.4932 17.9286 18.65 17.9286 18.8793C17.9286 19.1145 17.7355 19.3075 17.3796 19.3075C16.8548 19.3075 16.3542 19.0361 16.3542 19.0361L16.0465 19.9228C16.0465 19.9228 16.505 20.2305 17.2771 20.2305C18.3991 20.2305 19.2134 19.6755 19.2134 18.6802C19.2014 18.1373 18.7972 17.7633 18.3086 17.4798ZM22.7845 15.6098C22.2295 15.6098 21.7952 15.8752 21.4634 16.2734L21.4514 16.2673L21.934 13.7579H20.6853L19.4668 20.1521H20.7155L21.1317 17.9684C21.2945 17.142 21.7228 16.6293 22.121 16.6293C22.4045 16.6293 22.5131 16.8223 22.5131 17.0937C22.5131 17.2626 22.501 17.4798 22.4588 17.6487L21.9883 20.1521H23.2369L23.7255 17.5703C23.7798 17.2988 23.816 16.9731 23.816 16.7499C23.81 16.0321 23.442 15.6098 22.7845 15.6098ZM26.6391 15.6098C25.131 15.6098 24.1357 16.9671 24.1357 18.4811C24.1357 19.4463 24.7329 20.2305 25.8549 20.2305C27.3328 20.2305 28.3281 18.9094 28.3281 17.3592C28.3342 16.4604 27.8154 15.6098 26.6391 15.6098ZM26.0238 19.2774C25.5955 19.2774 25.4206 18.9155 25.4206 18.457C25.4206 17.7392 25.7886 16.575 26.4702 16.575C26.9105 16.575 27.0614 16.961 27.0614 17.329C27.0614 18.0951 26.6813 19.2774 26.0238 19.2774ZM31.5312 15.6098C30.6867 15.6098 30.2102 16.3578 30.2102 16.3578H30.1981L30.2705 15.6882H29.1606C29.1063 16.1406 29.0037 16.8344 28.9072 17.3471L28.0446 21.9255H29.2933L29.6431 20.0736H29.6733C29.6733 20.0736 29.9327 20.2365 30.4032 20.2365C31.8751 20.2365 32.8342 18.7285 32.8342 17.2083C32.8282 16.3638 32.4481 15.6098 31.5312 15.6098ZM30.3369 19.2895C30.0111 19.2895 29.8181 19.1025 29.8181 19.1025L30.0232 17.9382C30.1679 17.1541 30.5781 16.6413 31.0125 16.6413C31.3985 16.6413 31.5131 16.9972 31.5131 17.329C31.5192 18.1373 31.0366 19.2895 30.3369 19.2895ZM34.6137 13.8183C34.2156 13.8183 33.8959 14.138 33.8959 14.5421C33.8959 14.9101 34.1311 15.1695 34.487 15.1695H34.4991C34.8912 15.1695 35.223 14.904 35.229 14.4456C35.235 14.0776 34.9877 13.8183 34.6137 13.8183ZM32.8644 20.146H34.113L34.9575 15.7063H33.7028L32.8644 20.146ZM38.1425 15.7003H37.2739L37.3161 15.4952C37.3885 15.0669 37.6419 14.6929 38.0641 14.6929C38.2873 14.6929 38.4623 14.7593 38.4623 14.7593L38.7035 13.776C38.7035 13.776 38.4924 13.6674 38.0219 13.6674C37.5816 13.6674 37.1352 13.7941 36.7974 14.0837C36.3691 14.4456 36.17 14.9704 36.0735 15.5012L36.0373 15.7063H35.4522L35.2652 16.6534H35.8503L35.1868 20.1521H36.4354L37.099 16.6534H37.9616L38.1425 15.7003ZM41.1526 15.7063C41.1526 15.7063 40.3684 17.6789 40.0246 18.7586H40.0125C39.9884 18.4088 39.7049 15.7063 39.7049 15.7063H38.3899L39.1439 19.772C39.156 19.8625 39.1499 19.9168 39.1137 19.9771C38.969 20.2606 38.7216 20.5321 38.4321 20.7311C38.1968 20.9 37.9314 21.0147 37.7203 21.087L38.0702 22.1487C38.3235 22.0944 38.8543 21.8833 39.2947 21.4671C39.8617 20.9362 40.3926 20.1098 40.9355 18.9878L42.4616 15.7003H41.1526V15.7063Z" fill="black"/>
</g>
</svg>
