<svg width="164" height="76" viewBox="0 0 164 76" fill="none" xmlns="http://www.w3.org/2000/svg">
<path id="Subtract" fill-rule="evenodd" clip-rule="evenodd" d="M112.942 65.186L163.095 36.2303C162.109 33.9512 160.83 31.7079 159.26 29.5197C155.738 24.6102 150.842 20.102 144.81 16.1629C140.119 13.0991 134.742 10.3796 128.789 8.08339C115.184 2.83489 99.1889 0.0335156 82.8262 0.0335133C66.4634 0.033512 50.4681 2.83488 36.863 8.08338C23.2579 13.3319 12.6539 20.7918 6.39219 29.5197C0.516024 37.7101 -1.28863 46.6721 1.14944 55.4018L35.4032 75.1782L53.5761 64.6861C47.791 61.3461 43.8513 57.0906 42.2552 52.4578C40.6591 47.8251 41.4783 43.0231 44.6092 38.6591C47.7401 34.2952 53.042 30.5652 59.8446 27.941C66.6472 25.3167 74.6448 23.9161 82.8262 23.9161C91.0076 23.9161 99.0052 25.3167 105.808 27.941C108.072 28.8144 110.169 29.8102 112.076 30.9111C115.541 32.9114 118.375 35.2586 120.431 37.8484C120.643 38.1161 120.847 38.3864 121.043 38.6591C123 41.3866 124.054 44.2852 124.179 47.2066C124.188 47.4039 124.192 47.6012 124.192 47.7986C124.192 49.3555 123.928 50.9161 123.397 52.4579C122.898 53.9056 122.171 55.3165 121.229 56.6741C121.168 56.7623 121.106 56.8503 121.043 56.9381C118.974 59.8217 115.936 62.4577 112.076 64.6861L112.942 65.186ZM64.5438 58.3533C54.4473 52.5241 54.4473 43.0731 64.5438 37.2439C74.6403 31.4147 91.0099 31.4147 101.106 37.2439C111.203 43.0731 111.203 52.5241 101.106 58.3533C96.1468 61.2167 89.6737 62.6735 83.174 62.7238C83.0577 62.7247 82.9413 62.7252 82.8251 62.7252C82.7087 62.7252 82.5925 62.7247 82.4762 62.7238C75.9764 62.6735 69.5033 61.2167 64.5438 58.3533Z" fill="url(#paint0_linear_1_300)"/>
<defs>
<linearGradient id="paint0_linear_1_300" x1="104.597" y1="-37.0665" x2="102.709" y2="70.0433" gradientUnits="userSpaceOnUse">
<stop stop-color="white"/>
<stop offset="1" stop-color="white" stop-opacity="0"/>
</linearGradient>
</defs>
</svg>
