<svg width="216" height="65" viewBox="0 0 216 65" fill="none" xmlns="http://www.w3.org/2000/svg">
<path id="Vector 3" d="M0 1.29034C3.79619 1.29034 6.07296 0.372988 9.72074 1.29034C16.0933 2.89293 15.6016 9.55601 21.7287 11.7708C27.3029 13.7858 31.3287 10.9436 37.1676 12.2699C50.3128 15.2559 49.0392 30.7728 62.3271 33.2309C67.57 34.2007 70.8512 32.0964 76.0505 33.2309C87.0799 35.6375 85.7611 54.0914 96.6356 51.1974C101.78 49.8285 101.884 44.8394 106.928 43.2123C119.373 39.1981 118.656 66.5209 131.516 63.6742C139.017 62.0138 138.459 53.805 145.811 51.6965C151.115 50.1755 154.572 52.3332 160.106 51.6965C185.469 48.7789 181.491 13.5176 206.995 11.7708C210.111 11.5574 215 11.7708 215 11.7708" stroke="url(#paint0_linear_1_380)" stroke-opacity="0.2"/>
<defs>
<linearGradient id="paint0_linear_1_380" x1="0" y1="32.3826" x2="215" y2="32.3826" gradientUnits="userSpaceOnUse">
<stop stop-color="#00F5A0"/>
<stop offset="1" stop-color="#00D9F5"/>
</linearGradient>
</defs>
</svg>
