<svg width="32" height="33" viewBox="0 0 32 33" fill="none" xmlns="http://www.w3.org/2000/svg">
<g id="visa (2) 1">
<path id="Vector" d="M11.7333 21.4794L13.3587 12.3365H15.8984L14.3238 21.4794H11.7333Z" fill="#3C58BF"/>
<path id="Vector_2" d="M11.7333 21.4794L13.8158 12.3365H15.8984L14.3238 21.4794H11.7333Z" fill="#293688"/>
<path id="Vector_3" d="M23.5174 12.4382C23.0095 12.235 22.1968 12.0319 21.1809 12.0319C18.6412 12.0319 16.8126 13.3017 16.8126 15.1303C16.8126 16.5017 18.0825 17.2128 19.0984 17.67C20.1142 18.1271 20.419 18.4319 20.419 18.8382C20.419 19.4477 19.6063 19.7525 18.8952 19.7525C17.8793 19.7525 17.3206 19.6001 16.4571 19.2446L16.1015 19.0922L15.746 21.1747C16.3555 21.4287 17.473 21.6827 18.6412 21.6827C21.3333 21.6827 23.1111 20.4128 23.1111 18.4827C23.1111 17.416 22.4507 16.6033 20.9269 15.943C20.0126 15.4858 19.4539 15.2319 19.4539 14.7747C19.4539 14.3684 19.9111 13.962 20.9269 13.962C21.7904 13.962 22.3999 14.1144 22.8571 14.3176L23.1111 14.4192L23.5174 12.4382Z" fill="#3C58BF"/>
<path id="Vector_4" d="M23.5174 12.4382C23.0095 12.235 22.1968 12.0319 21.1809 12.0319C18.6412 12.0319 17.2698 13.3017 17.2698 15.1303C17.2698 16.5017 18.0825 17.2128 19.0984 17.67C20.1142 18.1271 20.419 18.4319 20.419 18.8382C20.419 19.4477 19.6063 19.7525 18.8952 19.7525C17.8793 19.7525 17.3206 19.6001 16.4571 19.2446L16.1015 19.0922L15.746 21.1747C16.3555 21.4287 17.473 21.6827 18.6412 21.6827C21.3333 21.6827 23.1111 20.4128 23.1111 18.4827C23.1111 17.416 22.4507 16.6033 20.9269 15.943C20.0126 15.4858 19.4539 15.2319 19.4539 14.7747C19.4539 14.3684 19.9111 13.962 20.9269 13.962C21.7904 13.962 22.3999 14.1144 22.8571 14.3176L23.1111 14.4192L23.5174 12.4382Z" fill="#293688"/>
<path id="Vector_5" d="M27.8856 12.3365C27.2761 12.3365 26.819 12.3873 26.565 12.9969L22.7555 21.4794H25.4983L26.0063 19.9556H29.2571L29.5618 21.4794H31.9999L29.8666 12.3365H27.8856ZM26.7174 18.4318C26.8698 17.9746 27.7333 15.7397 27.7333 15.7397C27.7333 15.7397 27.9364 15.181 28.0888 14.8254L28.2412 15.6889C28.2412 15.6889 28.7491 17.9746 28.8507 18.4826H26.7174V18.4318Z" fill="#3C58BF"/>
<path id="Vector_6" d="M28.4952 12.3365C27.8856 12.3365 27.4285 12.3873 27.1745 12.9969L22.7555 21.4794H25.4983L26.0063 19.9556H29.2571L29.5618 21.4794H31.9999L29.8666 12.3365H28.4952ZM26.7174 18.4318C26.9206 17.9239 27.7333 15.7397 27.7333 15.7397C27.7333 15.7397 27.9364 15.181 28.0888 14.8254L28.2412 15.6889C28.2412 15.6889 28.7491 17.9746 28.8507 18.4826H26.7174V18.4318Z" fill="#293688"/>
<path id="Vector_7" d="M7.06026 18.7366L6.80629 17.4159C6.34915 15.8921 4.87613 14.2159 3.25073 13.4032L5.53645 21.5302H8.2793L12.3936 12.3874H9.65073L7.06026 18.7366Z" fill="#3C58BF"/>
<path id="Vector_8" d="M7.06026 18.7366L6.80629 17.4159C6.34915 15.8921 4.87613 14.2159 3.25073 13.4032L5.53645 21.5302H8.2793L12.3936 12.3874H10.1587L7.06026 18.7366Z" fill="#293688"/>
<path id="Vector_9" d="M0 12.3365L0.457143 12.4381C3.70794 13.2 5.94286 15.1302 6.80635 17.4159L5.89206 13.0985C5.73968 12.4889 5.28254 12.3365 4.72381 12.3365H0Z" fill="#FFBC00"/>
<path id="Vector_10" d="M0 12.3365C3.25079 13.0985 5.94286 15.0794 6.80635 17.3651L5.94286 13.7588C5.79047 13.1492 5.28254 12.7937 4.72381 12.7937L0 12.3365Z" fill="#F7981D"/>
<path id="Vector_11" d="M0 12.3365C3.25079 13.0985 5.94286 15.0794 6.80635 17.3651L6.19682 15.3842C6.04444 14.7746 5.84127 14.1651 5.13016 13.9112L0 12.3365Z" fill="#ED7C00"/>
<g id="Group">
<path id="Vector_12" d="M9.60005 18.4318L7.87306 16.7048L7.06037 18.635L6.85719 17.3651C6.40005 15.8413 4.92703 14.1651 3.30164 13.3524L5.58735 21.4794H8.33021L9.60005 18.4318Z" fill="#051244"/>
<path id="Vector_13" d="M14.3238 21.4794L12.1396 19.2444L11.7333 21.4794H14.3238Z" fill="#051244"/>
<path id="Vector_14" d="M20.1651 18.3301C20.3683 18.5333 20.4699 18.6857 20.4191 18.8889C20.4191 19.4984 19.6064 19.8032 18.8953 19.8032C17.8794 19.8032 17.3207 19.6508 16.4572 19.2952L16.1016 19.1428L15.7461 21.2254C16.3556 21.4793 17.4731 21.7333 18.6413 21.7333C20.2667 21.7333 21.5874 21.2762 22.3493 20.4635L20.1651 18.3301Z" fill="#051244"/>
<path id="Vector_15" d="M23.1112 21.4794H25.4985L26.0064 19.9556H29.2572L29.562 21.4794H32.0001L31.1366 17.7715L28.089 14.8254L28.2414 15.6381C28.2414 15.6381 28.7493 17.9239 28.8509 18.4318H26.7176C26.9207 17.9239 27.7334 15.7397 27.7334 15.7397C27.7334 15.7397 27.9366 15.181 28.089 14.8254" fill="#051244"/>
</g>
</g>
</svg>
